<mxfile host="app.diagrams.net" agent="Mozilla/5.0 (Windows NT 10.0; Win64; x64) AppleWebKit/537.36 (KHTML, like Gecko) Chrome/131.0.0.0 Safari/537.36" version="27.0.3">
  <diagram name="第 1 页" id="F9QfNPKws5Z9E7l-O0tv">
    <mxGraphModel dx="1213" dy="730" grid="1" gridSize="10" guides="1" tooltips="1" connect="1" arrows="1" fold="1" page="1" pageScale="1" pageWidth="827" pageHeight="1169" math="0" shadow="0">
      <root>
        <mxCell id="0" />
        <mxCell id="1" parent="0" />
        <mxCell id="P88Dps1FK8DmfdaHWinE-45" style="edgeStyle=orthogonalEdgeStyle;rounded=0;orthogonalLoop=1;jettySize=auto;html=1;exitX=0.5;exitY=1;exitDx=0;exitDy=0;entryX=0.5;entryY=0;entryDx=0;entryDy=0;" edge="1" parent="1" source="P88Dps1FK8DmfdaHWinE-6" target="P88Dps1FK8DmfdaHWinE-44">
          <mxGeometry relative="1" as="geometry" />
        </mxCell>
        <mxCell id="P88Dps1FK8DmfdaHWinE-6" value="start" style="ellipse;whiteSpace=wrap;html=1;" vertex="1" parent="1">
          <mxGeometry x="294" y="30" width="120" height="80" as="geometry" />
        </mxCell>
        <mxCell id="P88Dps1FK8DmfdaHWinE-43" value="end" style="ellipse;whiteSpace=wrap;html=1;" vertex="1" parent="1">
          <mxGeometry x="294" y="585" width="120" height="80" as="geometry" />
        </mxCell>
        <mxCell id="P88Dps1FK8DmfdaHWinE-47" style="edgeStyle=orthogonalEdgeStyle;rounded=0;orthogonalLoop=1;jettySize=auto;html=1;entryX=0.5;entryY=0;entryDx=0;entryDy=0;" edge="1" parent="1" source="P88Dps1FK8DmfdaHWinE-44" target="P88Dps1FK8DmfdaHWinE-46">
          <mxGeometry relative="1" as="geometry" />
        </mxCell>
        <mxCell id="P88Dps1FK8DmfdaHWinE-44" value="supply enough usdc" style="rounded=0;whiteSpace=wrap;html=1;" vertex="1" parent="1">
          <mxGeometry x="294" y="190" width="120" height="60" as="geometry" />
        </mxCell>
        <mxCell id="P88Dps1FK8DmfdaHWinE-51" value="" style="edgeStyle=orthogonalEdgeStyle;rounded=0;orthogonalLoop=1;jettySize=auto;html=1;" edge="1" parent="1" source="P88Dps1FK8DmfdaHWinE-46" target="P88Dps1FK8DmfdaHWinE-50">
          <mxGeometry relative="1" as="geometry" />
        </mxCell>
        <mxCell id="P88Dps1FK8DmfdaHWinE-54" value="" style="edgeStyle=orthogonalEdgeStyle;rounded=0;orthogonalLoop=1;jettySize=auto;html=1;" edge="1" parent="1" source="P88Dps1FK8DmfdaHWinE-46" target="P88Dps1FK8DmfdaHWinE-53">
          <mxGeometry relative="1" as="geometry" />
        </mxCell>
        <mxCell id="P88Dps1FK8DmfdaHWinE-46" value="&lt;div&gt;&lt;span style=&quot;background-color: transparent; color: light-dark(rgb(0, 0, 0), rgb(255, 255, 255));&quot;&gt;lent usdc&lt;/span&gt;&lt;/div&gt;&lt;div&gt;get ore&lt;/div&gt;" style="rhombus;whiteSpace=wrap;html=1;" vertex="1" parent="1">
          <mxGeometry x="279.5" y="300" width="149" height="80" as="geometry" />
        </mxCell>
        <mxCell id="P88Dps1FK8DmfdaHWinE-52" style="edgeStyle=orthogonalEdgeStyle;rounded=0;orthogonalLoop=1;jettySize=auto;html=1;exitX=0.5;exitY=0;exitDx=0;exitDy=0;entryX=0;entryY=0.5;entryDx=0;entryDy=0;" edge="1" parent="1" source="P88Dps1FK8DmfdaHWinE-50" target="P88Dps1FK8DmfdaHWinE-44">
          <mxGeometry relative="1" as="geometry" />
        </mxCell>
        <mxCell id="P88Dps1FK8DmfdaHWinE-50" value="usdc&amp;nbsp;is not enough" style="whiteSpace=wrap;html=1;" vertex="1" parent="1">
          <mxGeometry x="65" y="310" width="120" height="60" as="geometry" />
        </mxCell>
        <mxCell id="P88Dps1FK8DmfdaHWinE-56" value="" style="edgeStyle=orthogonalEdgeStyle;rounded=0;orthogonalLoop=1;jettySize=auto;html=1;" edge="1" parent="1" source="P88Dps1FK8DmfdaHWinE-53" target="P88Dps1FK8DmfdaHWinE-43">
          <mxGeometry relative="1" as="geometry" />
        </mxCell>
        <mxCell id="P88Dps1FK8DmfdaHWinE-53" value="restake ore token to&amp;nbsp;&lt;span style=&quot;background-color: transparent;&quot;&gt;ore official&lt;/span&gt;" style="whiteSpace=wrap;html=1;" vertex="1" parent="1">
          <mxGeometry x="294" y="450" width="120" height="60" as="geometry" />
        </mxCell>
      </root>
    </mxGraphModel>
  </diagram>
</mxfile>
